<svg width="20" height="20" viewBox="0 0 20 20" fill="none" xmlns="http://www.w3.org/2000/svg">
<path d="M12.25 4.375V4.375C12.25 3.32663 12.25 2.80245 12.0787 2.38896C11.8504 1.83765 11.4124 1.39963 10.861 1.17127C10.4476 1 9.92337 1 8.875 1H5.5C3.37868 1 2.31802 1 1.65901 1.65901C1 2.31802 1 3.37868 1 5.5V8.875C1 9.92337 1 10.4476 1.17127 10.861C1.39963 11.4124 1.83765 11.8504 2.38896 12.0787C2.80245 12.25 3.32663 12.25 4.375 12.25V12.25" stroke="white" stroke-opacity="0.5" stroke-width="1.125"/>
<rect x="7.75" y="7.75" width="11.25" height="11.25" rx="2.25" stroke="white" stroke-opacity="0.5" stroke-width="1.125"/>
</svg>
