<svg width="450" height="300" viewBox="0 0 450 300" fill="none" xmlns="http://www.w3.org/2000/svg">
<path fill-rule="evenodd" clip-rule="evenodd" d="M255.888 35.857C281.872 13.7289 315.507 0.316506 352.27 0.141656C383.968 -0.0121361 415.428 10.1206 441.084 28.7609L411.135 69.9827C394.301 57.7525 373.681 51.0689 352.883 51.0929C328.303 51.1208 305.823 60.1148 288.538 74.9804C301.321 97.0434 308.639 122.668 308.639 150.001C308.639 177.335 301.321 202.959 288.538 225.022C305.6 239.696 327.724 248.649 351.933 248.904C373.049 249.132 394.042 242.438 411.135 230.02L441.084 271.242C415.229 290.027 383.482 300.166 351.54 299.856C315.062 299.508 281.7 286.127 255.888 264.146C229.732 286.42 195.825 299.863 158.778 299.863L108.832 299.863C53.6499 299.863 8.91614 255.129 8.91614 199.947V100.055C8.91614 44.8736 53.6499 0.139892 108.832 0.139892C110.206 0.139893 111.579 0.13922 112.951 0.138547C164.484 0.113281 213.887 0.0890605 255.888 35.857ZM125.808 248.91C89.3909 248.91 59.869 219.388 59.869 182.971V117.032C59.869 80.6147 89.3909 51.0928 125.808 51.0928C126.661 51.0928 127.513 51.0924 128.365 51.092C162.608 51.0773 195.427 51.0632 223.238 74.9804C249.898 97.9083 262.516 134.291 255.915 168.73C251.632 191.078 239.827 210.755 223.238 225.022C195.427 248.939 162.608 248.925 128.365 248.911C127.513 248.91 126.661 248.91 125.808 248.91Z" fill="url(#paint0_linear_10_58)"/>
<path fill-rule="evenodd" clip-rule="evenodd" d="M255.888 35.857C281.872 13.7289 315.507 0.316506 352.27 0.141656C383.968 -0.0121361 415.428 10.1206 441.084 28.7609L411.135 69.9827C394.301 57.7525 373.681 51.0689 352.883 51.0929C328.303 51.1208 305.823 60.1148 288.538 74.9804C301.321 97.0434 308.639 122.668 308.639 150.001C308.639 177.335 301.321 202.959 288.538 225.022C305.6 239.696 327.724 248.649 351.933 248.904C373.049 249.132 394.042 242.438 411.135 230.02L441.084 271.242C415.229 290.027 383.482 300.166 351.54 299.856C315.062 299.508 281.7 286.127 255.888 264.146C229.732 286.42 195.825 299.863 158.778 299.863L108.832 299.863C53.6499 299.863 8.91614 255.129 8.91614 199.947V100.055C8.91614 44.8736 53.6499 0.139892 108.832 0.139892C110.206 0.139893 111.579 0.13922 112.951 0.138547C164.484 0.113281 213.887 0.0890605 255.888 35.857ZM125.808 248.91C89.3909 248.91 59.869 219.388 59.869 182.971V117.032C59.869 80.6147 89.3909 51.0928 125.808 51.0928C126.661 51.0928 127.513 51.0924 128.365 51.092C162.608 51.0773 195.427 51.0632 223.238 74.9804C249.898 97.9083 262.516 134.291 255.915 168.73C251.632 191.078 239.827 210.755 223.238 225.022C195.427 248.939 162.608 248.925 128.365 248.911C127.513 248.91 126.661 248.91 125.808 248.91Z" fill="black" fill-opacity="0.1"/>
<defs>
<linearGradient id="paint0_linear_10_58" x1="355.856" y1="0.137164" x2="45.4865" y2="202.824" gradientUnits="userSpaceOnUse">
<stop stop-color="#FED54B"/>
<stop offset="0.473958" stop-color="#F5B2E6"/>
<stop offset="1" stop-color="#8CEAFF"/>
</linearGradient>
</defs>
</svg>
